<svg width="100" height="100" viewBox="0 0 100 100" fill="none" xmlns="http://www.w3.org/2000/svg">
<circle cx="50" cy="50" r="50" fill="#EEE5E9"/>
<path d="M30.2083 46.875C27.3375 46.875 25 49.2125 25 52.0833V68.75C25 71.6208 27.3375 73.9583 30.2083 73.9583H36.4583C37.6312 73.9583 38.7104 73.5625 39.5833 72.9041V46.875H30.2083Z" fill="#3EB68A"/>
<path d="M74.9999 54.6873C74.9999 53.4353 74.5041 52.2686 73.6437 51.4081C74.6166 50.3436 75.1124 48.9164 74.977 47.4311C74.7332 44.7831 72.3478 42.7081 69.5437 42.7081H56.6749C57.3124 40.7727 58.3332 37.2248 58.3332 34.3748C58.3332 29.8561 54.4937 26.0415 52.0832 26.0415C49.9187 26.0415 48.3728 27.2603 48.3062 27.3103C48.0604 27.5082 47.9166 27.8082 47.9166 28.1248V35.1894L41.9166 48.1873L41.6666 48.3144V70.6436C43.3624 71.4436 45.5082 71.8748 46.8749 71.8748H65.9979C68.2666 71.8748 70.2521 70.3456 70.7187 68.2353C70.9582 67.1498 70.8187 66.0561 70.3416 65.1061C71.8812 64.3311 72.9166 62.7456 72.9166 60.9373C72.9166 60.1998 72.7479 59.4936 72.4271 58.854C73.9666 58.079 74.9999 56.4936 74.9999 54.6873Z" fill="#3EB68A"/>
</svg>
