<svg width="100" height="100" viewBox="0 0 100 100" fill="none" xmlns="http://www.w3.org/2000/svg">
<circle cx="50" cy="50" r="50" fill="#EEE5E9"/>
<g clip-path="url(#clip0)">
<path d="M69.8142 52.9792C72.6849 52.9581 75.0051 50.6035 74.984 47.7328L74.8614 31.0665C74.8402 28.1958 72.4856 25.8756 69.6149 25.8967L63.365 25.9427C62.1921 25.9513 61.116 26.355 60.2479 27.0198L60.4394 53.0482L69.8142 52.9792Z" fill="#FE4F68"/>
<path d="M24.9662 45.4968C24.9754 46.7488 25.4798 47.9118 26.3465 48.7659C25.3814 49.8376 24.8962 51.2683 25.0425 52.7527C25.3058 55.3987 27.7064 57.4561 30.5104 57.4355L43.3789 57.3408C42.7556 59.2809 41.7609 62.8361 41.7819 65.6861C41.8152 70.2047 45.6827 73.9909 48.0931 73.9731C50.2576 73.9572 51.7945 72.7271 51.8607 72.6766C52.105 72.4769 52.2466 72.1758 52.2442 71.8592L52.1922 64.7949L58.0964 51.7531L58.3455 51.6242L58.1812 29.2956C56.4795 28.5081 54.3306 28.0927 52.9639 28.1028L33.8415 28.2435C31.5728 28.2602 29.5987 29.8039 29.1476 31.9177C28.9161 33.0049 29.0637 34.0976 29.5477 35.044C28.0139 35.8303 26.9901 37.4234 27.0034 39.2316C27.0089 39.9691 27.1828 40.6741 27.5083 41.3112C25.9745 42.0976 24.9529 43.6906 24.9662 45.4968Z" fill="#FE4F68"/>
</g>
<defs>
<clipPath id="clip0">
<rect width="50" height="50" fill="white" transform="translate(75.1833 74.8154) rotate(179.578)"/>
</clipPath>
</defs>
</svg>
